<svg xmlns="http://www.w3.org/2000/svg" version="1.1" xmlns:xlink="http://www.w3.org/1999/xlink" viewBox="0 0 12.345393601868716 3.8127766911178136"><g transform="matrix(0.7390117708369972,0,0,0.7390117708369972,4.21529350577496,1.1991544219502561)"><rect width="13.691907792950927" height="13.691907792950927" x="-4.197277146790592" y="-5.888954358013924" fill="#ffffff"></rect><g transform="matrix(1,0,0,1,0,0)" clip-path="url(#SvgjsClipPath81183)"><g clip-path="url(#SvgjsClipPath8117813e74d10-6598-4da5-b2fa-85ba8cf1783f)"><path d=" M -0.6684645516748766 0.6895671472908471 C -0.6642462711980004 0.73803782639545 -0.6567588233515456 0.7710590532534948 -0.6448210896019866 0.7992819860690931 C -0.6166113389128784 0.8659677275579062 -0.5635190062607989 0.9058647515932586 -0.46996018170898735 1.0595630736188304 C -0.3938808568832317 1.184529632746281 -0.36026116148252996 1.1768312708759825 -0.4716474938997379 1.2442235743446721 C -0.5625277103487325 1.2829342069959035 -0.5893876112852405 1.264969605015008 -0.5907849166932055 1.355810275084532 C -0.5882961312118486 1.3936482509621095 -0.5629679933735066 1.4346393914961517 -0.5604660257656593 1.4724641852472389 C -0.5569226701650836 1.5262472613274074 -0.6291396319292004 1.5321159440408612 -0.6308005798669702 1.5575969945464903 C -0.6333130931760094 1.5959174362536102 -0.5318133556264795 1.587172413539987 -0.5950532892507443 1.6407155749180333 C -0.6245021598299347 1.6656482489616682 -0.6115414930647334 1.749515574117857 -0.6117945898933459 1.8174720726003288 C -0.6123666941830224 1.9700077310694617 -0.7469219321194718 1.8995308100020565 -0.8891228034202585 1.9019800491039427 C -0.9354500687575491 1.9027709766933567 -0.9786294422889708 1.905557678233393 -1.0188692016130694 1.9100923297460346 C -1.2486336663379074 1.9360162997017354 -1.4527536221886375 2.036698745408871 -1.6234437052601256 2.19013078847934 C -1.5886007085211302 2.0097992980928923 -1.4524662518311504 1.8579412009253575 -1.3148712155260522 1.7027348436293024 C -1.2933975314734554 1.6785192772667363 -1.2754698394467325 1.651461644432875 -1.252498665824845 1.6295714051831869 C -0.7099856136938265 1.1125420399830945 -0.6418577475669816 -0.2007774036874697 -1.9573311507060507 0.07549096686962786 C -1.5031040725307483 -0.1492563805130258 -0.7322818624394141 -0.04485657513564362 -0.6684645516748766 0.6895671472908471 Z" fill="#ee4942" transform="matrix(1,0,0,1,0,0)" fill-rule="evenodd"></path></g><g clip-path="url(#SvgjsClipPath8117813e74d10-6598-4da5-b2fa-85ba8cf1783f)"><path d=" M -1.8377455356119152 0.2797190161575779 L -1.6920540372165134 0.5320486450084043 L -1.5463704480970055 0.7843756374339325 L -1.8377323534854249 0.7843756374339325 L -2.1291021681497386 0.7843756374339325 L -1.9834159426049327 0.5320486450084043 L -1.8377323534854249 0.27971901615757777 Z M -1.2570043166592082 0.8480980368877403 L -1.1532056162497808 0.6683201958138826 L -1.0494174615415457 0.48854235474002483 L -1.2570043166592084 0.48854235474002483 L -1.4645964446274673 0.48854235474002483 L -1.360805653493934 0.6683201958138826 L -1.2570043166592084 0.8480980368877403 Z M -2.3250412963006273 0.935419079184371 L -2.261326806122714 0.8250609526334015 L -2.1976070430942043 0.7147107353583261 L -2.3250412963006273 0.7147107353583261 L -2.452467640231156 0.7147107353583261 L -2.3887584229038388 0.8250609526334015 L -2.3250412963006273 0.935419079184371 Z M -2.035192699033287 -0.2761317115562628 L -1.9714755724300757 -0.1657735850052933 L -1.9077584458268642 -0.055415458454323774 L -2.162624315814412 -0.055415458454323774 L -2.0989071892112006 -0.1657735850052933 L -2.035192699033287 -0.2761317115562628 Z M -2.583832803556968 -0.04617215135936931 L -2.5201209498043524 0.06418597519160019 L -2.456403823201141 0.17454410174256973 L -2.711280238889881 0.17454410174256973 L -2.6475631122866696 0.06418597519160019 L -2.58384334925816 -0.046172151359369334 Z M -2.0526748351846402 0.997166796089941 L -1.9889603450067264 1.1075275590662086 L -1.9252432184035149 1.217885685617178 L -2.180109088391063 1.217885685617178 L -2.1163998710637455 1.1075275590662086 L -2.052685380885832 0.9971667960899407 Z M -1.209084650441897 0.2218362987389454 L -1.149319525360459 0.32535553806677975 L -1.0895596731296164 0.4288668681187199 L -1.3286175370300721 0.4288668681187199 L -1.2688524119486337 0.32535553806677975 L -1.2090846504418973 0.2218362987389454 Z M -1.5566577796099867 0.17490792843370023 L -1.6164176318408292 0.27842453133623657 L -1.6761906661981616 0.3819384978134749 L -1.4371328022977063 0.3819384978134749 L -1.496892654528549 0.27842453133623657 L -1.5566577796099867 0.17490792843370034 Z M -2.6356042871347265 0.953908329799578 L -2.7431704392950635 0.767571062584178 L -2.8507629557083813 0.5812337953687781 L -2.6356042871347265 0.5812337953687781 L -2.420442982135773 0.5812337953687781 L -2.528027589273197 0.7675657897335818 L -2.635593741433534 0.9539030569489816 Z M -2.258885476296722 -0.0036571570030556333 L -2.366451628457059 0.18267483736174817 L -2.4740335991691844 0.36900155887595576 L -2.0437162620218743 0.36900155887595576 L -2.1512824141822118 0.18266429166055592 L -2.258885476296722 -0.0036571570030556333 Z M -1.430731561674047 0.7908506979659372 L -1.3231469545366232 0.9771826923307408 L -1.2155808023762862 1.1635173231208427 L -1.430742107375239 1.1635173231208427 L -1.645898139523596 1.1635173231208427 L -1.5383319873632586 0.9771826923307408 L -1.4307526530764314 0.790850697965937 Z M -1.7314132304910639 1.1073245543182586 L -1.6676987403131505 0.9969637913419912 L -1.6039974322617274 0.8866083012163198 L -1.858839574421593 0.8866083012163198 L -1.7951382663701698 0.9969637913419912 Z" fill="#ee4942" transform="matrix(1,0,0,1,0,0)" fill-rule="evenodd"></path></g></g><g><path d=" M 0.399 1.14 Q 0.3045 1.14 0.23775000000000002 1.122 Q 0.171 1.104 0.1005 1.0695 L 0.0855 0.8220000000000001 L 0.1095 0.8220000000000001 L 0.189 0.9855 Q 0.2415 1.029 0.2925 1.0485 Q 0.3435 1.068 0.3945 1.068 Q 0.4815 1.068 0.5317500000000001 1.023 Q 0.582 0.978 0.582 0.9 Q 0.582 0.8385 0.55425 0.80175 Q 0.5265 0.765 0.47175 0.73575 Q 0.417 0.7065 0.3375 0.6675 Q 0.231 0.6164999999999999 0.17400000000000002 0.56025 Q 0.117 0.504 0.117 0.402 Q 0.117 0.348 0.14325000000000002 0.29774999999999996 Q 0.1695 0.24749999999999994 0.2145 0.20775 Q 0.2595 0.16799999999999993 0.315 0.14400000000000002 Q 0.3705 0.11999999999999988 0.4305 0.11999999999999988 Q 0.501 0.11999999999999988 0.5625 0.13649999999999995 Q 0.624 0.15300000000000002 0.684 0.1845 L 0.6990000000000001 0.4245 L 0.675 0.4245 L 0.597 0.264 Q 0.549 0.22650000000000003 0.51 0.20999999999999996 Q 0.47100000000000003 0.1935 0.4215 0.1935 Q 0.357 0.1935 0.31425000000000003 0.237 Q 0.2715 0.28049999999999997 0.2715 0.34650000000000003 Q 0.2715 0.42000000000000004 0.31725000000000003 0.46199999999999997 Q 0.363 0.504 0.465 0.5519999999999999 Q 0.555 0.5955 0.61425 0.63525 Q 0.6735 0.675 0.7020000000000001 0.7244999999999999 Q 0.7305 0.774 0.7305 0.8505 Q 0.7305 0.921 0.7005 0.975 Q 0.6705 1.029 0.621 1.06575 Q 0.5715 1.1025 0.51375 1.12125 Q 0.456 1.14 0.399 1.14 M 1.0455234375 0.25949999999999995 Q 1.0050234375 0.25949999999999995 0.9780234375 0.23249999999999993 Q 0.9510234375 0.20550000000000002 0.9510234375 0.16500000000000004 Q 0.9510234375 0.123 0.9780234375 0.09674999999999989 Q 1.0050234375 0.07050000000000001 1.0455234375 0.07050000000000001 Q 1.0860234375 0.07050000000000001 1.1130234374999999 0.09674999999999989 Q 1.1400234375 0.123 1.1400234375 0.16500000000000004 Q 1.1400234375 0.20550000000000002 1.1130234374999999 0.23249999999999993 Q 1.0860234375 0.25949999999999995 1.0455234375 0.25949999999999995 M 0.8835234375 1.125 L 0.8835234375 1.101 L 0.9795234374999999 1.053 L 0.9795234374999999 0.6045 L 0.8880234374999999 0.528 L 0.8880234374999999 0.516 L 1.1100234375 0.4335 L 1.1205234375 0.4335 L 1.1205234375 1.053 L 1.2135234375 1.101 L 1.2135234375 1.125 L 0.8835234375 1.125 M 1.35151318359375 1.125 L 1.35151318359375 1.101 L 1.4475131835937498 1.053 L 1.4475131835937498 0.6045 L 1.35601318359375 0.5295 L 1.35601318359375 0.5175 L 1.56301318359375 0.4335 L 1.57351318359375 0.4335 L 1.5870131835937498 0.5445 L 1.5945131835937498 0.5445 Q 1.65001318359375 0.489 1.7010131835937499 0.46124999999999994 Q 1.7520131835937498 0.4335 1.81501318359375 0.4335 Q 1.88701318359375 0.4335 1.9380131835937497 0.46575 Q 1.98901318359375 0.498 2.00401318359375 0.5609999999999999 L 2.01001318359375 0.5609999999999999 Q 2.07151318359375 0.49649999999999994 2.1255131835937497 0.46499999999999997 Q 2.17951318359375 0.4335 2.24701318359375 0.4335 Q 2.3340131835937497 0.4335 2.38876318359375 0.47775 Q 2.44351318359375 0.522 2.44351318359375 0.6105 L 2.44351318359375 1.053 L 2.53951318359375 1.101 L 2.53951318359375 1.125 L 2.20201318359375 1.125 L 2.20201318359375 1.101 L 2.3025131835937502 1.053 L 2.3025131835937502 0.6795 Q 2.3025131835937502 0.615 2.2650131835937497 0.58275 Q 2.22751318359375 0.5505 2.16901318359375 0.5505 Q 2.1225131835937496 0.5505 2.08051318359375 0.56625 Q 2.03851318359375 0.582 2.01001318359375 0.612 L 2.01001318359375 1.053 L 2.10751318359375 1.101 L 2.10751318359375 1.125 L 1.7745131835937498 1.125 L 1.7745131835937498 1.101 L 1.8690131835937498 1.053 L 1.8690131835937498 0.6795 Q 1.8690131835937498 0.615 1.8322631835937497 0.58275 Q 1.79551318359375 0.5505 1.73701318359375 0.5505 Q 1.7010131835937499 0.5505 1.6582631835937498 0.5625 Q 1.61551318359375 0.5745 1.5885131835937498 0.6 L 1.5885131835937498 1.053 L 1.68001318359375 1.101 L 1.68001318359375 1.125 L 1.35151318359375 1.125 M 2.6550058593749997 1.47 L 2.6550058593749997 1.446 L 2.7510058593749998 1.3980000000000001 L 2.7510058593749998 0.606 L 2.659505859375 0.5295 L 2.659505859375 0.5175 L 2.8665058593749997 0.4335 L 2.877005859375 0.4335 L 2.8890058593749997 0.525 L 2.899505859375 0.525 Q 2.955005859375 0.477 3.0075058593749997 0.45524999999999993 Q 3.060005859375 0.4335 3.1215058593749996 0.4335 Q 3.1950058593749997 0.4335 3.2535058593749997 0.47250000000000003 Q 3.3120058593749997 0.5115 3.346505859375 0.58275 Q 3.3810058593749996 0.6539999999999999 3.3810058593749996 0.7545 Q 3.3810058593749996 0.876 3.3345058593749997 0.96225 Q 3.2880058593749997 1.0485 3.210005859375 1.09425 Q 3.132005859375 1.14 3.037505859375 1.14 Q 2.956505859375 1.14 2.8920058593749998 1.125 L 2.8920058593749998 1.3980000000000001 L 3.001505859375 1.446 L 3.001505859375 1.47 L 2.6550058593749997 1.47 M 3.0300058593749997 0.5415 Q 2.9580058593749996 0.5415 2.8920058593749998 0.582 L 2.8920058593749998 1.008 Q 2.931005859375 1.041 2.9737558593749998 1.05375 Q 3.016505859375 1.0665 3.069005859375 1.0665 Q 3.1140058593749997 1.0665 3.153005859375 1.041 Q 3.1920058593749996 1.0155 3.2152558593749996 0.95775 Q 3.2385058593749996 0.9 3.2385058593749996 0.8025 Q 3.2385058593749996 0.711 3.210005859375 0.6539999999999999 Q 3.181505859375 0.597 3.134255859375 0.56925 Q 3.087005859375 0.5415 3.0300058593749997 0.5415 M 3.5070380859375 1.125 L 3.5070380859375 1.101 L 3.6015380859375 1.053 L 3.6015380859375 0.17099999999999993 L 3.5115380859374996 0.09450000000000003 L 3.5115380859374996 0.08250000000000002 L 3.7320380859375 0 L 3.7440380859374995 0 L 3.7440380859374995 1.053 L 3.8370380859375 1.101 L 3.8370380859375 1.125 L 3.5070380859375 1.125 M 3.970576171875 1.125 L 3.970576171875 1.101 L 4.066576171875 1.053 L 4.066576171875 0.5175 L 3.9495761718749995 0.5175 L 3.9495761718749995 0.4485 L 4.066576171875 0.4485 L 4.066576171875 0.39149999999999996 Q 4.066576171875 0.33299999999999996 4.1018261718749995 0.26549999999999996 Q 4.137076171875 0.19799999999999995 4.199326171875 0.13724999999999998 Q 4.261576171874999 0.07650000000000001 4.342576171875 0.038249999999999895 Q 4.423576171875 0 4.515076171875 0 Q 4.549576171875 0 4.575076171875 0.005249999999999977 Q 4.600576171875 0.010499999999999954 4.6170761718749995 0.01649999999999996 Q 4.672576171875 0.03299999999999992 4.672576171875 0.06000000000000005 Q 4.672576171875 0.07499999999999996 4.665076171875 0.09000000000000008 L 4.623076171875 0.16949999999999998 L 4.608076171875 0.16949999999999998 L 4.567576171874999 0.15149999999999997 Q 4.525576171875 0.132 4.491076171875 0.12149999999999994 Q 4.456576171875 0.11099999999999999 4.4055761718749995 0.11099999999999999 Q 4.296076171875 0.11099999999999999 4.251826171875 0.17625000000000002 Q 4.207576171875 0.24149999999999994 4.207576171875 0.348 L 4.207576171875 0.4485 L 4.729576171874999 0.4485 L 4.729576171874999 1.053 L 4.822576171874999 1.101 L 4.822576171874999 1.125 L 4.492576171874999 1.125 L 4.492576171874999 1.101 L 4.588576171874999 1.053 L 4.588576171874999 0.5175 L 4.207576171875 0.5175 L 4.207576171875 1.056 L 4.317076171875 1.101 L 4.317076171875 1.125 L 3.970576171875 1.125 M 4.954599609374999 1.125 L 4.954599609374999 1.101 L 5.049099609374999 1.053 L 5.049099609374999 0.17099999999999993 L 4.9590996093749995 0.09450000000000003 L 4.9590996093749995 0.08250000000000002 L 5.179599609375 0 L 5.191599609374999 0 L 5.191599609374999 1.053 L 5.284599609374999 1.101 L 5.284599609374999 1.125 L 4.954599609374999 1.125 M 5.5786376953125 0.25949999999999995 Q 5.5381376953125 0.25949999999999995 5.5111376953125 0.23249999999999993 Q 5.4841376953125 0.20550000000000002 5.4841376953125 0.16500000000000004 Q 5.4841376953125 0.123 5.5111376953125 0.09674999999999989 Q 5.5381376953125 0.07050000000000001 5.5786376953125 0.07050000000000001 Q 5.619137695312499 0.07050000000000001 5.6461376953124995 0.09674999999999989 Q 5.6731376953125 0.123 5.6731376953125 0.16500000000000004 Q 5.6731376953125 0.20550000000000002 5.6461376953124995 0.23249999999999993 Q 5.619137695312499 0.25949999999999995 5.5786376953125 0.25949999999999995 M 5.4166376953125 1.125 L 5.4166376953125 1.101 L 5.5126376953125 1.053 L 5.5126376953125 0.6045 L 5.4211376953125 0.528 L 5.4211376953125 0.516 L 5.643137695312499 0.4335 L 5.6536376953125 0.4335 L 5.6536376953125 1.053 L 5.7466376953125 1.101 L 5.7466376953125 1.125 L 5.4166376953125 1.125 M 5.884627441406249 1.125 L 5.884627441406249 1.101 L 5.9806274414062495 1.053 L 5.9806274414062495 0.6045 L 5.8891274414062496 0.5295 L 5.8891274414062496 0.5175 L 6.096127441406249 0.4335 L 6.10662744140625 0.4335 L 6.120127441406249 0.5445 L 6.12762744140625 0.5445 Q 6.184627441406249 0.489 6.237127441406249 0.46124999999999994 Q 6.28962744140625 0.4335 6.3556274414062495 0.4335 Q 6.442627441406249 0.4335 6.50037744140625 0.47775 Q 6.558127441406249 0.522 6.558127441406249 0.6105 L 6.558127441406249 1.053 L 6.652627441406249 1.101 L 6.652627441406249 1.125 L 6.31662744140625 1.125 L 6.31662744140625 1.101 L 6.415627441406249 1.053 L 6.415627441406249 0.6795 Q 6.415627441406249 0.615 6.376627441406249 0.58275 Q 6.33762744140625 0.5505 6.276127441406249 0.5505 Q 6.2386274414062495 0.5505 6.1936274414062495 0.5625 Q 6.14862744140625 0.5745 6.1216274414062495 0.6 L 6.1216274414062495 1.053 L 6.22062744140625 1.101 L 6.22062744140625 1.125 L 5.884627441406249 1.125 M 7.083125244140625 0.909 Q 7.015625244140624 0.909 6.958625244140625 0.885 Q 6.9316252441406245 0.897 6.920375244140624 0.915 Q 6.909125244140625 0.933 6.909125244140625 0.954 Q 6.909125244140625 1.029 7.017125244140624 1.029 L 7.194125244140625 1.029 Q 7.3051252441406245 1.029 7.358375244140625 1.07775 Q 7.411625244140625 1.1265 7.411625244140625 1.2225 Q 7.411625244140625 1.287 7.367375244140624 1.34775 Q 7.323125244140624 1.4085 7.242125244140625 1.44675 Q 7.161125244140624 1.4849999999999999 7.050125244140625 1.4849999999999999 Q 6.9076252441406245 1.4849999999999999 6.844625244140625 1.43475 Q 6.781625244140624 1.3845 6.781625244140624 1.311 Q 6.781625244140624 1.2570000000000001 6.808625244140624 1.215 L 6.910625244140625 1.149 L 6.910625244140625 1.1415 Q 6.853625244140624 1.1295 6.823625244140625 1.09575 Q 6.793625244140625 1.062 6.793625244140625 1.0125 Q 6.793625244140625 0.954 6.834125244140624 0.9135 L 6.915125244140625 0.87 L 6.915125244140625 0.861 Q 6.867125244140625 0.8295 6.839375244140625 0.78 Q 6.811625244140624 0.7304999999999999 6.811625244140624 0.6705 Q 6.811625244140624 0.603 6.846875244140625 0.5489999999999999 Q 6.882125244140624 0.495 6.943625244140624 0.46424999999999994 Q 7.005125244140625 0.4335 7.083125244140625 0.4335 Q 7.1176252441406245 0.4335 7.155875244140624 0.44175 Q 7.194125244140625 0.44999999999999996 7.221125244140625 0.46199999999999997 L 7.4461252441406245 0.4485 L 7.4461252441406245 0.531 L 7.303625244140624 0.522 L 7.297625244140624 0.528 Q 7.323125244140624 0.5535 7.338875244140625 0.5925 Q 7.354625244140625 0.6315 7.354625244140625 0.6705 Q 7.354625244140625 0.738 7.318625244140625 0.792 Q 7.2826252441406245 0.846 7.221875244140625 0.8775 Q 7.161125244140624 0.909 7.083125244140625 0.909 M 7.096625244140625 0.846 Q 7.153625244140624 0.846 7.185875244140624 0.79575 Q 7.218125244140625 0.7455 7.218125244140625 0.675 Q 7.218125244140625 0.591 7.176125244140625 0.54225 Q 7.134125244140624 0.49349999999999994 7.074125244140625 0.49349999999999994 Q 7.012625244140624 0.49349999999999994 6.980375244140625 0.54375 Q 6.948125244140624 0.594 6.948125244140624 0.6659999999999999 Q 6.948125244140624 0.7455 6.989375244140625 0.79575 Q 7.030625244140625 0.846 7.096625244140625 0.846 M 6.892625244140625 1.2915 Q 6.892625244140625 1.356 6.942125244140625 1.3980000000000001 Q 6.991625244140624 1.44 7.068125244140624 1.44 Q 7.134125244140624 1.44 7.182875244140624 1.4144999999999999 Q 7.231625244140624 1.389 7.2593752441406245 1.3485 Q 7.287125244140625 1.308 7.287125244140625 1.263 Q 7.287125244140625 1.1985 7.252625244140624 1.17375 Q 7.218125244140625 1.149 7.131125244140624 1.149 L 6.9781252441406245 1.149 Q 6.970625244140624 1.149 6.963125244140625 1.149 Q 6.924125244140624 1.1715 6.9083752441406245 1.20675 Q 6.892625244140625 1.242 6.892625244140625 1.2915 M 7.816641357421874 1.14 Q 7.744641357421875 1.14 7.692891357421875 1.12725 Q 7.6411413574218745 1.1145 7.588641357421874 1.0875 L 7.588641357421874 0.9195 L 7.611141357421874 0.9195 L 7.659141357421874 1.0005 Q 7.708641357421874 1.083 7.812141357421875 1.083 Q 7.872141357421874 1.083 7.904391357421875 1.056 Q 7.936641357421874 1.029 7.936641357421874 0.981 Q 7.936641357421874 0.942 7.916391357421874 0.9179999999999999 Q 7.896141357421874 0.894 7.857891357421875 0.876 Q 7.819641357421874 0.858 7.765641357421875 0.8325 Q 7.6876413574218745 0.798 7.646391357421875 0.756 Q 7.605141357421874 0.714 7.605141357421874 0.6405000000000001 Q 7.605141357421874 0.582 7.637391357421874 0.5355 Q 7.669641357421875 0.489 7.720641357421875 0.46124999999999994 Q 7.771641357421874 0.4335 7.8286413574218745 0.4335 Q 7.882641357421875 0.4335 7.930641357421875 0.44625000000000004 Q 7.978641357421875 0.45899999999999996 8.025141357421875 0.483 L 8.025141357421875 0.6495 L 8.004141357421874 0.6495 L 7.954641357421875 0.5715 Q 7.905141357421875 0.49349999999999994 7.833141357421875 0.49349999999999994 Q 7.783641357421875 0.49349999999999994 7.753641357421874 0.51825 Q 7.723641357421874 0.543 7.723641357421874 0.5865 Q 7.723641357421874 0.6345000000000001 7.7588913574218745 0.66075 Q 7.794141357421874 0.687 7.869141357421874 0.72 Q 7.912641357421874 0.7395 7.954641357421875 0.76125 Q 7.996641357421875 0.7829999999999999 8.024391357421875 0.82125 Q 8.052141357421874 0.8594999999999999 8.052141357421874 0.9299999999999999 Q 8.052141357421874 0.999 8.015391357421874 1.0455 Q 7.978641357421875 1.092 7.924641357421875 1.116 Q 7.870641357421874 1.14 7.816641357421874 1.14" fill="#382d5e" fill-rule="nonzero"></path></g><g><path d=" M 0.2730461538461539 1.8559375384615386 Q 0.27971538461538464 1.8602529230769231 0.28324615384615387 1.870845230769231 Q 0.22871538461538463 1.9218452307692309 0.17261538461538464 1.9218452307692309 Q 0.1341692307692308 1.9218452307692309 0.10553076923076925 1.9079183076923079 Q 0.0768923076923077 1.8939913846153846 0.05806153846153847 1.8710413846153846 Q 0.039230769230769236 1.8480913846153848 0.030011538461538464 1.8188644615384617 Q 0.020792307692307693 1.7896375384615386 0.020792307692307693 1.7590375384615387 Q 0.020792307692307693 1.7280452307692309 0.031384615384615386 1.698426 Q 0.04197692307692308 1.6688067692307693 0.06237692307692308 1.6454644615384617 Q 0.08277692307692308 1.6221221538461539 0.11278846153846155 1.607999076923077 Q 0.1428 1.593876 0.18124615384615386 1.593876 Q 0.2318538461538462 1.593876 0.27540000000000003 1.6174144615384616 L 0.27540000000000003 1.6927375384615386 Q 0.2683384615384616 1.6939144615384616 0.2628461538461539 1.6939144615384616 Q 0.25696153846153846 1.6939144615384616 0.25303846153846155 1.6927375384615386 L 0.2404846153846154 1.627222153846154 Q 0.21655384615384618 1.611529846153846 0.17653846153846156 1.611529846153846 Q 0.15182307692307695 1.611529846153846 0.13201153846153849 1.6227106153846154 Q 0.11220000000000001 1.6338913846153846 0.09827307692307694 1.6529183076923077 Q 0.08434615384615385 1.6719452307692309 0.0768923076923077 1.6976413846153846 Q 0.06943846153846155 1.7233375384615386 0.06943846153846155 1.7523683076923078 Q 0.06943846153846155 1.7833606153846155 0.07669615384615386 1.8096452307692308 Q 0.08395384615384616 1.8359298461538462 0.0972923076923077 1.8551529230769233 Q 0.11063076923076924 1.874376 0.1296576923076923 1.8851644615384617 Q 0.1486846153846154 1.8959529230769232 0.17222307692307695 1.8959529230769232 Q 0.2004692307692308 1.8959529230769232 0.22675384615384617 1.8849683076923078 Q 0.25303846153846155 1.8739836923076925 0.2730461538461539 1.8559375384615386 M 0.5102696272536058 1.8096452307692308 Q 0.5102696272536058 1.7861067692307693 0.5171350118689905 1.7655106153846154 Q 0.524000396484375 1.7449144615384617 0.536946550330529 1.7296144615384617 Q 0.5498927041766828 1.7143144615384616 0.5681350118689904 1.7054875384615387 Q 0.5863773195612981 1.6966606153846155 0.6091311657151444 1.6966606153846155 Q 0.6314927041766828 1.6966606153846155 0.6499311657151443 1.7054875384615387 Q 0.6683696272536058 1.7143144615384616 0.6815119349459136 1.7296144615384617 Q 0.6946542426382212 1.7449144615384617 0.7017157810997596 1.7655106153846154 Q 0.7087773195612982 1.7861067692307693 0.7087773195612982 1.8096452307692308 Q 0.7087773195612982 1.8339683076923077 0.7015196272536058 1.8543683076923079 Q 0.6942619349459136 1.8747683076923078 0.6811196272536059 1.889872153846154 Q 0.6679773195612981 1.904976 0.6495388580228366 1.9134106153846155 Q 0.6311003964843751 1.9218452307692309 0.6091311657151444 1.9218452307692309 Q 0.5859850118689904 1.9218452307692309 0.5677427041766827 1.9136067692307692 Q 0.5495003964843751 1.9053683076923078 0.5367503964843751 1.8904606153846155 Q 0.524000396484375 1.8755529230769232 0.5171350118689905 1.8549567692307694 Q 0.5102696272536058 1.8343606153846155 0.5102696272536058 1.8096452307692308 M 0.5675465503305289 1.7374606153846155 Q 0.5506773195612982 1.7613913846153846 0.5506773195612982 1.8096452307692308 Q 0.5506773195612982 1.833576 0.5551888580228366 1.851622153846154 Q 0.5597003964843751 1.8696683076923077 0.5675465503305289 1.8816336923076924 Q 0.5753927041766828 1.893599076923077 0.5859850118689904 1.8994836923076923 Q 0.5965773195612981 1.9053683076923078 0.6091311657151444 1.9053683076923078 Q 0.6212927041766827 1.9053683076923078 0.6322773195612982 1.8994836923076923 Q 0.6432619349459135 1.893599076923077 0.6511080887920674 1.8816336923076924 Q 0.6589542426382212 1.8696683076923077 0.6636619349459135 1.851622153846154 Q 0.6683696272536058 1.833576 0.6683696272536058 1.8096452307692308 Q 0.6683696272536058 1.7857144615384617 0.6636619349459135 1.767472153846154 Q 0.6589542426382212 1.7492298461538462 0.6509119349459136 1.7372644615384616 Q 0.6428696272536059 1.725299076923077 0.6320811657151443 1.7192183076923078 Q 0.6212927041766827 1.7131375384615386 0.6091311657151444 1.7131375384615386 Q 0.5848080887920674 1.7131375384615386 0.5675465503305289 1.7374606153846155 M 1.2261134657451924 1.773945230769231 Q 1.2261134657451924 1.7194144615384617 1.1911980811298077 1.7194144615384617 Q 1.1613826965144232 1.7194144615384617 1.1347057734375001 1.7606067692307694 L 1.1347057734375001 1.8939913846153846 L 1.1664826965144233 1.8998760000000001 Q 1.168051927283654 1.9061529230769232 1.1664826965144233 1.9155683076923078 Q 1.1417673118990386 1.9143913846153848 1.1162673118990385 1.9143913846153848 Q 1.0982211580528847 1.9143913846153848 1.0652673118990386 1.9151760000000002 Q 1.0629134657451924 1.907722153846154 1.0652673118990386 1.8998760000000001 L 1.0962596195913463 1.8955606153846154 Q 1.097828850360577 1.8739836923076925 1.097828850360577 1.8457375384615387 L 1.097828850360577 1.773945230769231 Q 1.097828850360577 1.7194144615384617 1.0629134657451924 1.7194144615384617 Q 1.0452596195913462 1.7194144615384617 1.0319211580528846 1.7302029230769231 Q 1.0185826965144231 1.7409913846153846 1.0044596195913462 1.763745230769231 L 1.0044596195913462 1.8939913846153846 L 1.0362365426682694 1.8998760000000001 Q 1.0378057734375001 1.9061529230769232 1.0362365426682694 1.9155683076923078 Q 1.0115211580528847 1.9143913846153848 0.9860211580528847 1.9143913846153848 Q 0.9679750042067309 1.9143913846153848 0.9350211580528847 1.9151760000000002 Q 0.9326673118990385 1.907722153846154 0.9350211580528847 1.8998760000000001 L 0.9660134657451924 1.8955606153846154 Q 0.9675826965144232 1.8739836923076925 0.9675826965144232 1.8457375384615387 L 0.9675826965144232 1.7382452307692309 Q 0.9675826965144232 1.730399076923077 0.9664057734375001 1.7237298461538462 L 0.9354134657451924 1.7198067692307693 Q 0.9338442349759616 1.713922153846154 0.9354134657451924 1.704899076923077 Q 0.9616980811298077 1.7029375384615386 1.0024980811298079 1.6966606153846155 Q 1.006028850360577 1.7005836923076925 1.0064211580528846 1.7045067692307694 Q 1.0044596195913462 1.7147067692307694 1.0044596195913462 1.7394221538461538 Q 1.035451927283654 1.6966606153846155 1.0742903888221154 1.6966606153846155 Q 1.0946903888221156 1.6966606153846155 1.1115596195913462 1.7070567692307694 Q 1.128428850360577 1.717452923076923 1.1331365426682694 1.7390298461538463 Q 1.1645211580528847 1.6966606153846155 1.202575004206731 1.6966606153846155 Q 1.2265057734375002 1.6966606153846155 1.2447480811298077 1.7107836923076924 Q 1.2629903888221155 1.7249067692307694 1.2629903888221155 1.7543298461538464 L 1.2629903888221155 1.8939913846153846 L 1.2947673118990386 1.8998760000000001 Q 1.2963365426682694 1.9061529230769232 1.2947673118990386 1.9155683076923078 Q 1.270051927283654 1.9143913846153848 1.2445519272836538 1.9143913846153848 Q 1.2265057734375002 1.9143913846153848 1.193551927283654 1.9151760000000002 Q 1.1911980811298077 1.907722153846154 1.193551927283654 1.8998760000000001 L 1.2245442349759617 1.8955606153846154 Q 1.2261134657451924 1.8739836923076925 1.2261134657451924 1.8457375384615387 L 1.2261134657451924 1.773945230769231 M 1.630472275691106 1.9006606153846155 Q 1.6563645833834137 1.9006606153846155 1.67146842953726 1.8755529230769232 Q 1.6865722756911061 1.850445230769231 1.6865722756911061 1.7998375384615386 Q 1.6865722756911061 1.760999076923077 1.6722530449218753 1.740599076923077 Q 1.6579338141526445 1.720199076923077 1.634395352614183 1.720199076923077 Q 1.5998722756911061 1.720199076923077 1.5747645833834136 1.7535452307692307 L 1.5747645833834136 1.8755529230769232 Q 1.5967338141526446 1.9006606153846155 1.630472275691106 1.9006606153846155 M 1.537495352614183 1.7606067692307694 Q 1.537495352614183 1.734322153846154 1.5363184295372598 1.7237298461538462 L 1.5053261218449523 1.7198067692307693 Q 1.504149198768029 1.7135298461538462 1.5053261218449523 1.704899076923077 Q 1.5327876603064907 1.7029375384615386 1.5728030449218753 1.6966606153846155 Q 1.5763338141526444 1.7001913846153847 1.5767261218449522 1.7045067692307694 Q 1.5747645833834136 1.7182375384615385 1.5747645833834136 1.7335375384615386 Q 1.6065415064603368 1.6966606153846155 1.6477338141526445 1.6966606153846155 Q 1.6822568910757214 1.6966606153846155 1.7052068910757214 1.725299076923077 Q 1.7281568910757215 1.7539375384615385 1.7281568910757215 1.8010144615384616 Q 1.7281568910757215 1.8555452307692308 1.698145352614183 1.8886952307692308 Q 1.6681338141526445 1.9218452307692309 1.6273338141526446 1.9218452307692309 Q 1.598695352614183 1.9218452307692309 1.5747645833834136 1.9034067692307692 L 1.5747645833834136 1.999522153846154 L 1.6143876603064906 2.0054067692307695 Q 1.6159568910757214 2.0116836923076926 1.6143876603064906 2.021099076923077 Q 1.5896722756911061 2.019922153846154 1.5598568910757213 2.019922153846154 Q 1.5378876603064906 2.019922153846154 1.5049338141526445 2.0207067692307694 Q 1.5025799679987983 2.0128606153846156 1.5049338141526445 2.0054067692307695 L 1.5359261218449523 2.0010913846153846 Q 1.537495352614183 1.9795144615384617 1.537495352614183 1.9512683076923079 L 1.537495352614183 1.7606067692307694 M 2.0203089965444714 1.665276 L 2.0203089965444714 1.8939913846153846 L 2.0520859196213945 1.8998760000000001 Q 2.0536551503906253 1.9061529230769232 2.0520859196213945 1.9155683076923078 Q 2.0273705350060096 1.9143913846153848 2.001478227313702 1.9143913846153848 Q 1.9834320734675484 1.9143913846153848 1.9504782273137022 1.9151760000000002 Q 1.948124381159856 1.907722153846154 1.9504782273137022 1.8998760000000001 L 1.9814705350060098 1.8955606153846154 Q 1.9830397657752405 1.8739836923076925 1.9830397657752405 1.8457375384615387 L 1.9830397657752405 1.620945230769231 L 1.9508705350060098 1.617022153846154 Q 1.949301304236779 1.6111375384615385 1.9508705350060098 1.6021144615384615 Q 1.9779397657752407 1.6001529230769231 2.018347458082933 1.593876 Q 2.021878227313702 1.597799076923077 2.02227053500601 1.601722153846154 Q 2.0203089965444714 1.611922153846154 2.0203089965444714 1.665276 M 2.3395420177283657 1.7680606153846155 L 2.3395420177283657 1.8939913846153846 L 2.371318940805289 1.8998760000000001 Q 2.3717112484975966 1.9018375384615385 2.3719074023437505 1.9034067692307692 Q 2.3721035561899044 1.904976 2.3721035561899044 1.9069375384615386 Q 2.3721035561899044 1.908899076923077 2.3719074023437505 1.9110567692307694 Q 2.3717112484975966 1.9132144615384616 2.371318940805289 1.9155683076923078 Q 2.3466035561899043 1.9143913846153848 2.3207112484975965 1.9143913846153848 Q 2.3116881715745197 1.9143913846153848 2.2989381715745196 1.9145875384615385 Q 2.2861881715745196 1.9147836923076924 2.2697112484975968 1.9151760000000002 Q 2.2685343254206733 1.9116452307692309 2.2685343254206733 1.907722153846154 Q 2.2685343254206733 1.9041913846153846 2.2697112484975968 1.8998760000000001 L 2.3007035561899043 1.8955606153846154 Q 2.3014881715745195 1.884576 2.3018804792668273 1.8722183076923078 Q 2.302272786959135 1.8598606153846156 2.302272786959135 1.8457375384615387 L 2.302272786959135 1.7621760000000002 Q 2.302272786959135 1.7362836923076923 2.301095863882212 1.7237298461538462 L 2.270103556189904 1.7198067692307693 Q 2.269318940805289 1.717845230769231 2.269318940805289 1.7131375384615386 Q 2.269318940805289 1.711176 2.269318940805289 1.7092144615384617 Q 2.269318940805289 1.7072529230769231 2.270103556189904 1.704899076923077 Q 2.296780479266827 1.7033298461538462 2.337580479266827 1.6966606153846155 Q 2.3411112484975964 1.7005836923076925 2.3415035561899042 1.7045067692307694 Q 2.3395420177283657 1.7154913846153848 2.3395420177283657 1.7680606153846155 M 2.282265094651443 1.6280067692307694 Q 2.2814804792668273 1.6260452307692308 2.2814804792668273 1.6238875384615385 Q 2.2814804792668273 1.6217298461538463 2.2814804792668273 1.6197683076923077 Q 2.2814804792668273 1.6091760000000002 2.29030740234375 1.6027029230769232 Q 2.2991343254206735 1.5962298461538462 2.3120804792668275 1.5962298461538462 Q 2.324242017728366 1.5962298461538462 2.3318920177283657 1.6034875384615386 Q 2.3395420177283657 1.610745230769231 2.3395420177283657 1.623299076923077 Q 2.3395420177283657 1.633499076923077 2.3307150946514428 1.6397760000000001 Q 2.3218881715745194 1.6460529230769232 2.3081574023437503 1.6460529230769232 Q 2.2987420177283657 1.6460529230769232 2.2914843254206736 1.641345230769231 Q 2.284226633112981 1.6366375384615386 2.282265094651443 1.6280067692307694 M 2.6301312137920676 1.861822153846154 Q 2.6301312137920676 1.8822221538461539 2.637585059945914 1.8906567692307694 Q 2.64503890609976 1.8990913846153847 2.6611235214843756 1.8990913846153847 Q 2.672892752253606 1.8990913846153847 2.687211983022837 1.8918336923076924 Q 2.7015312137920677 1.884576 2.713692752253606 1.870845230769231 L 2.713692752253606 1.8096452307692308 Q 2.673285059945914 1.811999076923077 2.651708136868991 1.8239644615384616 Q 2.6301312137920676 1.8359298461538462 2.6301312137920676 1.861822153846154 M 2.713692752253606 1.7955221538461539 L 2.713692752253606 1.7755144615384617 Q 2.713692752253606 1.7421683076923078 2.706042752253606 1.7270644615384616 Q 2.698392752253606 1.7119606153846154 2.68073890609976 1.7119606153846154 Q 2.6626927522536064 1.7119606153846154 2.651708136868991 1.7235336923076925 Q 2.6407235214843756 1.7351067692307693 2.6368004445612985 1.7629606153846153 Q 2.6242465984074523 1.7657067692307693 2.618361983022837 1.7657067692307693 Q 2.603061983022837 1.7657067692307693 2.600315829176683 1.754722153846154 Q 2.600315829176683 1.7280452307692309 2.623461983022837 1.7123529230769232 Q 2.646608136868991 1.6966606153846155 2.6811312137920678 1.6966606153846155 Q 2.719185059945914 1.6966606153846155 2.7350735214843755 1.7121567692307693 Q 2.750961983022837 1.727652923076923 2.750961983022837 1.7676683076923079 L 2.750961983022837 1.878299076923077 Q 2.750961983022837 1.8881067692307694 2.75213890609976 1.8951683076923078 L 2.7831312137920676 1.8990913846153847 Q 2.7847004445612984 1.904976 2.7831312137920676 1.913999076923077 Q 2.7552773676382216 1.9151760000000002 2.7238927522536063 1.9194913846153847 Q 2.7207542907151447 1.9163529230769232 2.719969675330529 1.9116452307692309 L 2.718008136868991 1.884576 Q 2.6854465984074523 1.9218452307692309 2.645431213792068 1.9218452307692309 Q 2.620715829176683 1.9218452307692309 2.60678890609976 1.907722153846154 Q 2.592861983022837 1.893599076923077 2.592861983022837 1.8696683076923077 Q 2.592861983022837 1.833576 2.625619675330529 1.8151375384615385 Q 2.658377367638222 1.796699076923077 2.713692752253606 1.7955221538461539 M 3.1592431036658657 1.773945230769231 Q 3.1592431036658657 1.7437375384615386 3.151200795973558 1.731576 Q 3.14315848828125 1.7194144615384617 3.124327719050481 1.7194144615384617 Q 3.095296949819712 1.7194144615384617 3.065873872896635 1.7629606153846153 L 3.065873872896635 1.8939913846153846 L 3.097650795973558 1.8998760000000001 Q 3.0992200267427887 1.9061529230769232 3.097650795973558 1.9155683076923078 Q 3.0729354113581735 1.9143913846153848 3.0470431036658656 1.9143913846153848 Q 3.028996949819712 1.9143913846153848 2.996043103665866 1.9151760000000002 Q 2.9936892575120195 1.907722153846154 2.996043103665866 1.8998760000000001 L 3.0270354113581734 1.8955606153846154 Q 3.028604642127404 1.8739836923076925 3.028604642127404 1.8457375384615387 L 3.028604642127404 1.7382452307692309 Q 3.028604642127404 1.730399076923077 3.0274277190504812 1.7237298461538462 L 2.9964354113581733 1.7198067692307693 Q 2.9948661805889425 1.713922153846154 2.9964354113581733 1.704899076923077 Q 3.023504642127404 1.7029375384615386 3.0639123344350967 1.6966606153846155 Q 3.0674431036658656 1.7005836923076925 3.0678354113581734 1.7045067692307694 Q 3.065873872896635 1.7147067692307694 3.065873872896635 1.7394221538461538 Q 3.096866180588943 1.6966606153846155 3.135704642127404 1.6966606153846155 Q 3.1965123344350963 1.6966606153846155 3.1965123344350963 1.7543298461538464 L 3.1965123344350963 1.8939913846153846 L 3.2282892575120195 1.8998760000000001 Q 3.22985848828125 1.9061529230769232 3.2282892575120195 1.9155683076923078 Q 3.203573872896635 1.9143913846153848 3.177681565204327 1.9143913846153848 Q 3.1596354113581735 1.9143913846153848 3.1266815652043274 1.9151760000000002 Q 3.124327719050481 1.907722153846154 3.1266815652043274 1.8998760000000001 L 3.157673872896635 1.8955606153846154 Q 3.1592431036658657 1.8739836923076925 3.1592431036658657 1.8457375384615387 L 3.1592431036658657 1.773945230769231 M 3.6193195668569715 1.754722153846154 Q 3.61108110531851 1.7633529230769232 3.58048110531851 1.7629606153846153 Q 3.574204182241587 1.7135298461538462 3.54478110531851 1.7135298461538462 Q 3.521634951472356 1.7135298461538462 3.5055503360877407 1.7402067692307692 Q 3.489465720703125 1.7668836923076925 3.489465720703125 1.8104298461538462 Q 3.489465720703125 1.8551529230769233 3.503588797626202 1.8792798461538462 Q 3.5177118745492795 1.9034067692307692 3.5459580283954333 1.9034067692307692 Q 3.575773413010818 1.9034067692307692 3.6044118745492795 1.8790836923076923 Q 3.6102964899338947 1.8826144615384617 3.6134349514723563 1.891245230769231 Q 3.5847964899338947 1.9218452307692309 3.5416426437800483 1.9218452307692309 Q 3.5004503360877406 1.9218452307692309 3.4741657207031253 1.8934029230769231 Q 3.44788110531851 1.8649606153846154 3.44788110531851 1.8096452307692308 Q 3.44788110531851 1.7566836923076923 3.477108028395433 1.726672153846154 Q 3.5063349514723563 1.6966606153846155 3.5439964899338947 1.6966606153846155 Q 3.5738118745492793 1.6966606153846155 3.5965657207031256 1.7115683076923078 Q 3.6193195668569715 1.7264760000000001 3.6193195668569715 1.754722153846154 M 4.009554150540866 1.8033683076923077 L 3.88636953515625 1.8033683076923077 Q 3.8828387659254813 1.9034067692307692 3.946392612079327 1.9034067692307692 Q 3.973461842848558 1.9034067692307692 4.001707996694712 1.8794760000000001 Q 4.0075926120793275 1.8830067692307693 4.010731073617789 1.8916375384615385 Q 3.983661842848558 1.9218452307692309 3.9420772274639426 1.9218452307692309 Q 3.846354150540866 1.9218452307692309 3.846354150540866 1.8092529230769232 Q 3.846354150540866 1.7558990769230771 3.8746003043870196 1.7262798461538462 Q 3.9028464582331734 1.6966606153846155 3.940507996694712 1.6966606153846155 Q 3.9817003043870196 1.6966606153846155 3.9997464582331737 1.725299076923077 Q 4.017792612079328 1.7539375384615385 4.017792612079328 1.7998375384615386 Q 4.013869535156251 1.8029760000000001 4.009554150540866 1.8033683076923077 M 3.9397233813100967 1.7123529230769232 Q 3.9193233813100967 1.7123529230769232 3.905004150540866 1.7335375384615386 Q 3.890684919771635 1.754722153846154 3.8875464582331736 1.787676 L 3.9361926120793274 1.787676 Q 3.9652233813100963 1.787676 3.9777772274639425 1.784145230769231 Q 3.9777772274639425 1.751976 3.9679695351562505 1.7321644615384617 Q 3.958161842848558 1.7123529230769232 3.9397233813100967 1.7123529230769232 M 4.829256002704327 1.773945230769231 Q 4.829256002704327 1.7194144615384617 4.794340618088943 1.7194144615384617 Q 4.764525233473558 1.7194144615384617 4.737848310396635 1.7606067692307694 L 4.737848310396635 1.8939913846153846 L 4.769625233473558 1.8998760000000001 Q 4.771194464242789 1.9061529230769232 4.769625233473558 1.9155683076923078 Q 4.744909848858174 1.9143913846153848 4.719409848858174 1.9143913846153848 Q 4.70136369501202 1.9143913846153848 4.668409848858174 1.9151760000000002 Q 4.666056002704328 1.907722153846154 4.668409848858174 1.8998760000000001 L 4.699402156550481 1.8955606153846154 Q 4.700971387319712 1.8739836923076925 4.700971387319712 1.8457375384615387 L 4.700971387319712 1.773945230769231 Q 4.700971387319712 1.7194144615384617 4.666056002704328 1.7194144615384617 Q 4.648402156550481 1.7194144615384617 4.63506369501202 1.7302029230769231 Q 4.621725233473558 1.7409913846153846 4.607602156550481 1.763745230769231 L 4.607602156550481 1.8939913846153846 L 4.639379079627404 1.8998760000000001 Q 4.640948310396635 1.9061529230769232 4.639379079627404 1.9155683076923078 Q 4.61466369501202 1.9143913846153848 4.58916369501202 1.9143913846153848 Q 4.571117541165866 1.9143913846153848 4.538163695012019 1.9151760000000002 Q 4.5358098488581735 1.907722153846154 4.538163695012019 1.8998760000000001 L 4.569156002704327 1.8955606153846154 Q 4.570725233473558 1.8739836923076925 4.570725233473558 1.8457375384615387 L 4.570725233473558 1.7382452307692309 Q 4.570725233473558 1.730399076923077 4.569548310396635 1.7237298461538462 L 4.538556002704327 1.7198067692307693 Q 4.536986771935097 1.713922153846154 4.538556002704327 1.704899076923077 Q 4.564840618088943 1.7029375384615386 4.605640618088943 1.6966606153846155 Q 4.609171387319712 1.7005836923076925 4.60956369501202 1.7045067692307694 Q 4.607602156550481 1.7147067692307694 4.607602156550481 1.7394221538461538 Q 4.6385944642427885 1.6966606153846155 4.67743292578125 1.6966606153846155 Q 4.697832925781251 1.6966606153846155 4.714702156550481 1.7070567692307694 Q 4.731571387319712 1.717452923076923 4.736279079627404 1.7390298461538463 Q 4.76766369501202 1.6966606153846155 4.8057175411658655 1.6966606153846155 Q 4.829648310396635 1.6966606153846155 4.847890618088943 1.7107836923076924 Q 4.86613292578125 1.7249067692307694 4.86613292578125 1.7543298461538464 L 4.86613292578125 1.8939913846153846 L 4.897909848858173 1.8998760000000001 Q 4.899479079627405 1.9061529230769232 4.897909848858173 1.9155683076923078 Q 4.873194464242789 1.9143913846153848 4.847694464242789 1.9143913846153848 Q 4.829648310396635 1.9143913846153848 4.796694464242789 1.9151760000000002 Q 4.794340618088943 1.907722153846154 4.796694464242789 1.8998760000000001 L 4.827686771935097 1.8955606153846154 Q 4.829256002704327 1.8739836923076925 4.829256002704327 1.8457375384615387 L 4.829256002704327 1.773945230769231 M 5.153976351111779 1.861822153846154 Q 5.153976351111779 1.8822221538461539 5.161430197265625 1.8906567692307694 Q 5.168884043419471 1.8990913846153847 5.184968658804086 1.8990913846153847 Q 5.196737889573318 1.8990913846153847 5.211057120342549 1.8918336923076924 Q 5.2253763511117794 1.884576 5.237537889573318 1.870845230769231 L 5.237537889573318 1.8096452307692308 Q 5.197130197265626 1.811999076923077 5.175553274188702 1.8239644615384616 Q 5.153976351111779 1.8359298461538462 5.153976351111779 1.861822153846154 M 5.237537889573318 1.7955221538461539 L 5.237537889573318 1.7755144615384617 Q 5.237537889573318 1.7421683076923078 5.229887889573318 1.7270644615384616 Q 5.222237889573318 1.7119606153846154 5.204584043419471 1.7119606153846154 Q 5.186537889573318 1.7119606153846154 5.175553274188702 1.7235336923076925 Q 5.164568658804087 1.7351067692307693 5.16064558188101 1.7629606153846153 Q 5.148091735727164 1.7657067692307693 5.142207120342548 1.7657067692307693 Q 5.1269071203425485 1.7657067692307693 5.124160966496395 1.754722153846154 Q 5.124160966496395 1.7280452307692309 5.147307120342548 1.7123529230769232 Q 5.170453274188702 1.6966606153846155 5.204976351111779 1.6966606153846155 Q 5.243030197265625 1.6966606153846155 5.258918658804086 1.7121567692307693 Q 5.274807120342548 1.727652923076923 5.274807120342548 1.7676683076923079 L 5.274807120342548 1.878299076923077 Q 5.274807120342548 1.8881067692307694 5.275984043419472 1.8951683076923078 L 5.306976351111779 1.8990913846153847 Q 5.30854558188101 1.904976 5.306976351111779 1.913999076923077 Q 5.279122504957933 1.9151760000000002 5.247737889573317 1.9194913846153847 Q 5.244599428034856 1.9163529230769232 5.243814812650241 1.9116452307692309 L 5.241853274188702 1.884576 Q 5.209291735727164 1.9218452307692309 5.169276351111779 1.9218452307692309 Q 5.144560966496394 1.9218452307692309 5.130634043419471 1.907722153846154 Q 5.116707120342548 1.893599076923077 5.116707120342548 1.8696683076923077 Q 5.116707120342548 1.833576 5.1494648126502405 1.8151375384615385 Q 5.182222504957933 1.796699076923077 5.237537889573318 1.7955221538461539 M 5.714472856370193 1.8582913846153848 Q 5.714472856370193 1.884576 5.715649779447116 1.8951683076923078 L 5.746642087139423 1.8990913846153847 Q 5.747819010216347 1.9053683076923078 5.746642087139423 1.913999076923077 Q 5.718003625600962 1.9151760000000002 5.687011317908654 1.9194913846153847 Q 5.6842651640625 1.916745230769231 5.683088240985578 1.9120375384615385 L 5.681126702524039 1.8869298461538462 Q 5.667395933293269 1.9030144615384617 5.64699593329327 1.9126260000000002 Q 5.626595933293269 1.9222375384615387 5.604234394831732 1.9222375384615387 Q 5.570103625600962 1.9222375384615387 5.547742087139423 1.893795230769231 Q 5.5253805486778855 1.8653529230769232 5.5253805486778855 1.8178836923076924 Q 5.5253805486778855 1.7629606153846153 5.554607471754808 1.7298106153846156 Q 5.583834394831731 1.6966606153846155 5.624634394831731 1.6966606153846155 Q 5.656803625600962 1.6966606153846155 5.677203625600962 1.7119606153846154 L 5.677203625600962 1.6593913846153847 Q 5.677203625600962 1.633499076923077 5.676026702524039 1.620945230769231 L 5.645034394831732 1.617022153846154 Q 5.6434651640625 1.6111375384615385 5.645034394831732 1.6021144615384615 Q 5.672103625600962 1.6001529230769231 5.712511317908654 1.593876 Q 5.7160420871394235 1.597799076923077 5.716434394831731 1.601722153846154 Q 5.714472856370193 1.611922153846154 5.714472856370193 1.665276 L 5.714472856370193 1.8582913846153848 M 5.62149593329327 1.717845230769231 Q 5.59599593329327 1.717845230769231 5.58069593329327 1.7447183076923078 Q 5.56539593329327 1.7715913846153848 5.56539593329327 1.8190606153846154 Q 5.56539593329327 1.857899076923077 5.579715164062501 1.878299076923077 Q 5.5940343948317315 1.898699076923077 5.6175728563701925 1.898699076923077 Q 5.63169593329327 1.898699076923077 5.6485651640625 1.889872153846154 Q 5.665434394831731 1.881045230769231 5.677203625600962 1.8653529230769232 L 5.677203625600962 1.7398144615384616 Q 5.657980548677885 1.717845230769231 5.62149593329327 1.717845230769231 M 6.1317783948317315 1.8033683076923077 L 6.008593779447116 1.8033683076923077 Q 6.005063010216347 1.9034067692307692 6.068616856370193 1.9034067692307692 Q 6.095686087139423 1.9034067692307692 6.123932240985577 1.8794760000000001 Q 6.1298168563701925 1.8830067692307693 6.132955317908654 1.8916375384615385 Q 6.105886087139424 1.9218452307692309 6.064301471754808 1.9218452307692309 Q 5.968578394831731 1.9218452307692309 5.968578394831731 1.8092529230769232 Q 5.968578394831731 1.7558990769230771 5.996824548677885 1.7262798461538462 Q 6.025070702524038 1.6966606153846155 6.062732240985578 1.6966606153846155 Q 6.103924548677885 1.6966606153846155 6.121970702524039 1.725299076923077 Q 6.140016856370193 1.7539375384615385 6.140016856370193 1.7998375384615386 Q 6.1360937794471155 1.8029760000000001 6.1317783948317315 1.8033683076923077 M 6.061947625600962 1.7123529230769232 Q 6.041547625600962 1.7123529230769232 6.027228394831731 1.7335375384615386 Q 6.0129091640625 1.754722153846154 6.0097707025240386 1.787676 L 6.058416856370193 1.787676 Q 6.087447625600962 1.787676 6.100001471754808 1.784145230769231 Q 6.100001471754808 1.751976 6.090193779447116 1.7321644615384617 Q 6.0803860871394235 1.7123529230769232 6.061947625600962 1.7123529230769232 M 6.829472554687501 1.8033683076923077 L 6.706287939302886 1.8033683076923077 Q 6.7027571700721165 1.9034067692307692 6.766311016225963 1.9034067692307692 Q 6.793380246995193 1.9034067692307692 6.821626400841347 1.8794760000000001 Q 6.827511016225962 1.8830067692307693 6.830649477764424 1.8916375384615385 Q 6.803580246995193 1.9218452307692309 6.761995631610578 1.9218452307692309 Q 6.666272554687501 1.9218452307692309 6.666272554687501 1.8092529230769232 Q 6.666272554687501 1.7558990769230771 6.694518708533654 1.7262798461538462 Q 6.722764862379808 1.6966606153846155 6.7604264008413475 1.6966606153846155 Q 6.801618708533654 1.6966606153846155 6.819664862379809 1.725299076923077 Q 6.8377110162259624 1.7539375384615385 6.8377110162259624 1.7998375384615386 Q 6.833787939302885 1.8029760000000001 6.829472554687501 1.8033683076923077 M 6.759641785456732 1.7123529230769232 Q 6.7392417854567315 1.7123529230769232 6.724922554687501 1.7335375384615386 Q 6.71060332391827 1.754722153846154 6.707464862379808 1.787676 L 6.7561110162259626 1.787676 Q 6.785141785456732 1.787676 6.797695631610578 1.784145230769231 Q 6.797695631610578 1.751976 6.787887939302886 1.7321644615384617 Q 6.778080246995193 1.7123529230769232 6.759641785456732 1.7123529230769232 M 7.105164594050482 1.861822153846154 Q 7.105164594050482 1.8822221538461539 7.112618440204328 1.8906567692307694 Q 7.120072286358174 1.8990913846153847 7.1361569017427895 1.8990913846153847 Q 7.147926132512021 1.8990913846153847 7.162245363281252 1.8918336923076924 Q 7.1765645940504825 1.884576 7.188726132512021 1.870845230769231 L 7.188726132512021 1.8096452307692308 Q 7.148318440204329 1.811999076923077 7.126741517127405 1.8239644615384616 Q 7.105164594050482 1.8359298461538462 7.105164594050482 1.861822153846154 M 7.188726132512021 1.7955221538461539 L 7.188726132512021 1.7755144615384617 Q 7.188726132512021 1.7421683076923078 7.181076132512021 1.7270644615384616 Q 7.173426132512021 1.7119606153846154 7.155772286358174 1.7119606153846154 Q 7.137726132512021 1.7119606153846154 7.126741517127405 1.7235336923076925 Q 7.11575690174279 1.7351067692307693 7.111833824819713 1.7629606153846153 Q 7.099279978665867 1.7657067692307693 7.093395363281251 1.7657067692307693 Q 7.0780953632812516 1.7657067692307693 7.075349209435098 1.754722153846154 Q 7.075349209435098 1.7280452307692309 7.098495363281251 1.7123529230769232 Q 7.121641517127405 1.6966606153846155 7.156164594050482 1.6966606153846155 Q 7.194218440204328 1.6966606153846155 7.2101069017427895 1.7121567692307693 Q 7.2259953632812515 1.727652923076923 7.2259953632812515 1.7676683076923079 L 7.2259953632812515 1.878299076923077 Q 7.2259953632812515 1.8881067692307694 7.227172286358175 1.8951683076923078 L 7.258164594050482 1.8990913846153847 Q 7.259733824819713 1.904976 7.258164594050482 1.913999076923077 Q 7.230310747896636 1.9151760000000002 7.19892613251202 1.9194913846153847 Q 7.195787670973559 1.9163529230769232 7.195003055588944 1.9116452307692309 L 7.193041517127405 1.884576 Q 7.160479978665867 1.9218452307692309 7.120464594050482 1.9218452307692309 Q 7.095749209435097 1.9218452307692309 7.081822286358174 1.907722153846154 Q 7.067895363281251 1.893599076923077 7.067895363281251 1.8696683076923077 Q 7.067895363281251 1.833576 7.1006530555889436 1.8151375384615385 Q 7.133410747896636 1.796699076923077 7.188726132512021 1.7955221538461539 M 7.546399560847357 1.9045836923076924 Q 7.567584176231973 1.9045836923076924 7.577784176231972 1.894776 Q 7.587984176231973 1.8849683076923078 7.587984176231973 1.872022153846154 Q 7.587984176231973 1.8645683076923079 7.585630330078127 1.8582913846153848 Q 7.583276483924281 1.8520144615384617 7.577980330078127 1.8461298461538462 Q 7.572684176231973 1.840245230769231 7.564053407001204 1.8345567692307694 Q 7.555422637770435 1.8288683076923078 7.542476483924281 1.822199076923077 Q 7.526391868539665 1.8139606153846155 7.514818791616588 1.8065067692307692 Q 7.503245714693511 1.7990529230769232 7.495791868539665 1.7908144615384616 Q 7.488338022385819 1.7825760000000002 7.4846110993088955 1.7731606153846156 Q 7.480884176231973 1.763745230769231 7.480884176231973 1.751976 Q 7.480884176231973 1.737852923076923 7.485984176231973 1.7274567692307694 Q 7.491084176231973 1.7170606153846155 7.500303407001203 1.710195230769231 Q 7.509522637770434 1.7033298461538462 7.52207648392428 1.6999952307692308 Q 7.5346303300781265 1.6966606153846155 7.549930330078126 1.6966606153846155 Q 7.580530330078127 1.6966606153846155 7.609561099308896 1.7115683076923078 L 7.609561099308896 1.7617836923076924 L 7.591122637770434 1.7617836923076924 L 7.582491868539665 1.7194144615384617 Q 7.565230330078126 1.711176 7.54600725315505 1.711176 Q 7.513838022385819 1.711176 7.513838022385819 1.7374606153846155 Q 7.513838022385819 1.7515836923076924 7.524430330078126 1.7633529230769232 Q 7.535022637770434 1.775122153846154 7.558561099308896 1.7868913846153847 Q 7.574645714693511 1.7951298461538463 7.58680725315505 1.8025836923076923 Q 7.5989687916165884 1.8100375384615386 7.607011099308896 1.818276 Q 7.615053407001204 1.8265144615384616 7.6191726377704345 1.8361260000000001 Q 7.623291868539665 1.8457375384615387 7.623291868539665 1.857899076923077 Q 7.623291868539665 1.8716298461538463 7.61740725315505 1.883399076923077 Q 7.611522637770435 1.8951683076923078 7.600930330078127 1.9036029230769231 Q 7.590338022385819 1.9120375384615385 7.5754303300781265 1.9169413846153847 Q 7.560522637770434 1.9218452307692309 7.542476483924281 1.9218452307692309 Q 7.507561099308896 1.9218452307692309 7.4769610993088955 1.9069375384615386 L 7.4769610993088955 1.856722153846154 L 7.495399560847358 1.856722153846154 L 7.504030330078127 1.8955606153846154 Q 7.5240380223858185 1.9045836923076924 7.546399560847357 1.9045836923076924 M 7.918598334735578 1.9720606153846154 L 7.9437060270432704 1.9128221538461538 L 7.867598334735578 1.725299076923077 L 7.836998334735578 1.7190221538461539 Q 7.83503679627404 1.711176 7.836998334735578 1.7033298461538462 Q 7.858575257812501 1.704899076923077 7.889567565504809 1.704899076923077 Q 7.917421411658656 1.704899076923077 7.942529103966348 1.703722153846154 Q 7.944882950120194 1.7115683076923078 7.942529103966348 1.7190221538461539 L 7.908790642427886 1.7245144615384616 L 7.946059873197117 1.8127836923076923 Q 7.953906027043271 1.8320067692307693 7.96253679627404 1.8665298461538462 L 7.963321411658655 1.8665298461538462 Q 7.969990642427886 1.8429913846153847 7.981759873197117 1.8147452307692309 L 8.015890642427886 1.7233375384615386 L 7.985290642427886 1.7190221538461539 Q 7.983721411658656 1.7127452307692308 7.985290642427886 1.7033298461538462 Q 8.006867565504809 1.704899076923077 8.02726756550481 1.704899076923077 Q 8.044529103966347 1.704899076923077 8.070029103966348 1.703722153846154 Q 8.072382950120193 1.7115683076923078 8.070029103966348 1.7190221538461539 L 8.03903679627404 1.7233375384615386 L 7.935467565504809 1.9767683076923077 Q 7.927229103966348 1.9963836923076923 7.917029103966348 2.0061913846153847 Q 7.906829103966348 2.015999076923077 7.889959873197117 2.015999076923077 Q 7.876621411658656 2.015999076923077 7.869363719350963 2.0126644615384617 Q 7.8621060270432706 2.0093298461538462 7.854652180889425 1.9999144615384616 Q 7.857006027043271 1.9783375384615385 7.877013719350963 1.9653913846153848 Q 7.893098334735578 1.9834375384615386 7.904475257812502 1.9834375384615386 Q 7.914282950120194 1.9834375384615386 7.918598334735578 1.9720606153846154" fill="#571680" fill-rule="nonzero"></path></g></g><defs><clipPath id="SvgjsClipPath81183"><path d=" M -2.8507629557083813 -0.2761317115562628 h 2.4507629557083814 v 2.4662625000356027 h -2.4507629557083814 Z"></path></clipPath><clipPath id="SvgjsClipPath8117813e74d10-6598-4da5-b2fa-85ba8cf1783f"><path d=" M -2.8507629557083813 -0.2761317115562628 L -0.3999999999999999 -0.2761317115562628 L -0.3999999999999999 2.19013078847934 L -2.8507629557083813 2.19013078847934 Z"></path></clipPath></defs></svg>